# AST/ASF file generated using VICON BodyLanguage
# -----------------------------------------------
:version 1.10
:name VICON
:units
  mass 1.0
  length 0.45
  angle deg
:documentation
   .ast/.asf automatically generated from VICON data using
   VICON BodyBuilder and BodyLanguage model FoxedUp or BRILLIANT.MOD
:root
   order TX TY TZ RX RY RZ
   axis XYZ
   position 0 0 0  
   orientation 0 0 0 
:bonedata
  begin
     id 1 
     name lhipjoint
     direction 0.547975 -0.797114 0.253638 
     length 2.36201 
     axis 0 0 0  XYZ
  end
  begin
     id 2 
     name lfemur
     direction 0.34202 -0.939693 0  
     length 7.69075  
     axis 0 0 20  XYZ
    dof rx ry rz
    limits (-160.0 20.0)
           (-70.0 70.0)
           (-60.0 70.0)
  end
  begin
     id 3 
     name ltibia
     direction 0.34202 -0.939693 0   
     length 7.91399   
     axis 0 0 20   XYZ
    dof rx
    limits (-10.0 170.0)
  end
  begin
     id 4 
     name lfoot
     direction 0.0705293 -0.193778 0.978507   
     length 2.13618   
     axis -90 7.62852e-016 20   XYZ
    dof rx rz
    limits (-45.0 90.0)
           (-70.0 20.0)
  end
  begin
     id 5 
     name ltoes
     direction 1.53592e-011 -4.21925e-011 1   
     length 1.07518   
     axis -90 7.62852e-016 20   XYZ
    dof rx
    limits (-90.0 20.0)
  end
  begin
     id 6 
     name rhipjoint
     direction -0.57 -0.782963 0.249136   
     length 2.4047  
     axis 0 0 0  XYZ 
  end
  begin
     id 7 
     name rfemur
     direction -0.34202 -0.939693 0   
     length 7.51486   
     axis 0 0 -20   XYZ
    dof rx ry rz
    limits (-160.0 20.0)
           (-70.0 70.0)
           (-70.0 60.0)
  end
  begin
     id 8 
     name rtibia
     direction -0.34202 -0.939693 0   
     length 8.08317   
     axis 0 0 -20   XYZ
    dof rx
    limits (-10.0 170.0)
 end
 begin
     id 9 
     name rfoot
     direction -0.104954 -0.281256 0.953876   
     length 2.30343  
     axis -90 -7.62852e-016 -20   XYZ
    dof rx rz
    limits (-45.0 90.0)
           (-20.0 70.0)
  end
  begin
     id 10 
     name rtoes
     direction -1.53556e-011 -4.21922e-011 1   
     length 1.14803   
     axis -90 -7.62852e-016 -20   XYZ
    dof rx
    limits (-90.0 20.0)
  end
  begin
     id 11 
     name lowerback
     direction -0.0152855 0.99353 -0.11254   
     length 2.05311   
     axis 0 0 0   XYZ
    dof rx ry rz
    limits (-20.0 45.0)
           (-30.0 30.0)
           (-30.0 30.0)
  end
  begin
     id 12 
     name upperback
     direction -0.00157509 0.999443 -0.033332   
     length 2.06353   
     axis 0 0 0   XYZ
    dof rx ry rz
    limits (-20.0 45.0)
           (-30.0 30.0)
           (-30.0 30.0)
  end
  begin
     id 13 
     name thorax
     direction 0.00577788 0.999804 0.0189484   
     length 2.08472   
     axis 0 0 0   XYZ
    dof rx ry rz
    limits (-20.0 45.0)
           (-30.0 30.0)
           (-30.0 30.0)
  end
  begin
     id 14 
     name lowerneck
     direction -1.09301e-005 0.994719 0.10264   
     length 1.76249   
     axis 0 0 0   XYZ
    dof rx ry rz
    limits (-20.0 45.0)
           (-30.0 30.0)
           (-30.0 30.0)
  end
  begin
     id 15 
     name upperneck
     direction 0.0495018 0.988526 -0.142706   
     length 1.77897   
     axis 0 0 0   XYZ
    dof rx ry rz
    limits (-20.0 45.0)
           (-30.0 30.0)
           (-30.0 30.0)
  end
  begin
     id 16
     name head
     direction 0.0142736 0.998114 -0.0597101  
     length 1.78934  
     axis 0 0 0   XYZ
    dof rx ry rz
    limits (-20.0 45.0)
           (-30.0 30.0)
           (-30.0 30.0)
  end
  begin
     id 17 
     name lclavicle
     direction 0.918111 0.396107 -0.0130883  
     length 3.37276  
     axis 0 0 0   XYZ
    dof ry rz
    limits (-20.0 10.0)
           (0.0 20.0)
  end
  begin
     id 18 
     name lhumerus
     direction 1 -4.48975e-011 -3.26108e-027   
     length 5.34298   
     axis 180 -30 -90   XYZ
    dof rx ry rz
    limits (-60.0 90.0)
           (-90.0 90.0)
           (-90.0 90.0)
  end
  begin
     id 19
     name lradius
     direction 1 -4.48964e-011 -8.84413e-028   
     length 3.67262   
     axis 180 -30 -90   XYZ
    dof rx
    limits (-10.0 170.0)
  end
  begin
     id 20
     name lwrist
     direction 1 -4.48991e-011 -1.24264e-027   
     length 1.83631   
     axis -2.17013e-015 90 90   XYZ
    dof ry
    limits (-180.0 0.0)
 end
  begin
     id 21 
     name lhand
     direction 1 -4.48855e-011 -2.48528e-027   
     length 0.599298   
     axis 1.58582e-015 90 90   XYZ
    dof rx rz
    limits (-90.0 90.0)
           (-45.0 45.0)
  end
  begin
     id 22 
     name lfingers
     direction 1 -4.48811e-011 -4.97056e-027   
     length 0.48317   
     axis 3.17164e-015 90 90   XYZ
    dof rx
    limits (0.0 90.0)
  end
  begin
     id 23
     name lthumb
     direction 0.707107 -6.34882e-011 0.707107   
     length 0.693738   
     axis -90 45 2.85299e-015   XYZ
    dof rx rz
    limits (-45.0 45.0)
           (-45.0 45.0)
  end
  begin
     id 24 
     name rclavicle
     direction -0.920511 0.384752 -0.0680135   
     length 3.43787  
     axis 0 0 0   XYZ 
    dof ry rz
    limits (-10.0 20.0)
           (-20.0 0.0)
  end
  begin
     id 25 
     name rhumerus
     direction -0.999976 -0.00330524 0.00603274  
     length 5.5498   
     axis 180 30 90   XYZ
    dof rx ry rz
    limits (-90.0 60.0)
           (-90.0 90.0)
           (-90.0 90.0)
  end
  begin
     id 26 
     name rradius
     direction -1 -4.48967e-011 8.62438e-027   
     length 3.69401   
     axis 180 30 90   XYZ
    dof rx
    limits (-10.0 170.0)
  end
  begin
     id 27 
     name rwrist
     direction -1 -4.4897e-011 9.54866e-027   
     length 1.84701   
     axis -7.69462e-015 -90 -90   XYZ
    dof ry
    limits (-180.0 0.0)
  end
  begin
     id 28
     name rhand
     direction -1 -4.48982e-011 1.90973e-026   
     length 0.638113   
     axis -1.21857e-014 -90 -90   XYZ
    dof rx rz
    limits (-90.0 90.0)
           (-45.0 45.0)
  end
  begin
     id 29
     name rfingers
     direction -1 -4.48936e-011 3.81946e-026   
     length 0.514463   
     axis -2.43714e-014 -90 -90   XYZ
    dof rx
    limits (0.0 90.0)
  end
  begin
     id 30
     name rthumb
     direction -0.707107 -6.34942e-011 0.707107   
     length 0.738669   
     axis -90 -45 -2.85299e-015   XYZ
    dof rx rz
    limits (-45.0 45.0)
           (-45.0 45.0)
  end
:hierarchy
  begin
    root lhipjoint rhipjoint lowerback
    lhipjoint lfemur
    lfemur ltibia
    ltibia lfoot
    lfoot ltoes
    rhipjoint rfemur
    rfemur rtibia
    rtibia rfoot
    rfoot rtoes
    lowerback upperback
    upperback thorax
    thorax lowerneck lclavicle rclavicle
    lowerneck upperneck
    upperneck head
    lclavicle lhumerus
    lhumerus lradius
    lradius lwrist
    lwrist lhand lthumb
    lhand lfingers
    rclavicle rhumerus
    rhumerus rradius
    rradius rwrist
    rwrist rhand rthumb
    rhand rfingers
  end

#!OML:ASF F:\twosubjects\two\Thursday\Session 1\Rory.ASF
:FULLY-SPECIFIED
:DEGREES
99
root 7.297 10.7939 10.7415 168.799 5.96967 173.833
lowerback 40.7002 0.539628 -8.18303
upperback 10.7741 1.45539 -4.44726
thorax -7.30035 2.61338 -1.34449
lowerneck -17.9533 -7.67238 -2.49794
upperneck -11.1829 -7.52671 8.9075
head -0.114194 -2.66498 2.90618
rclavicle 1.23246e-014 7.23576e-014
rhumerus -11.7686 16.5939 -77.5
rradius 108.526
rwrist 13.0948
rhand -46.9015 16.5701
rfingers 7.12502
rthumb -19.6126 -12.4606
lclavicle 1.23246e-014 7.23576e-014
lhumerus -11.6615 -28.2187 54.7558
lradius 105.744
lwrist -22.2157
lhand 6.1826 20.6845
lfingers 7.12502
lthumb 31.4973 47.9899
rfemur -80.013 -13.1172 -6.42465
rtibia 102.033
rfoot -1.06881 10.992
rtoes -16.2312
lfemur -66.0609 22.0171 -2.03007
ltibia 94.7589
lfoot -11.4884 -14.0685
ltoes -23.4237
100
root 7.28792 10.7937 10.7589 168.523 6.14862 173.011
lowerback 40.9746 0.842674 -9.19008
upperback 10.4223 1.27671 -4.47839
thorax -7.73361 2.50953 -0.825998
lowerneck -17.0724 -7.48047 -3.05178
upperneck -11.1939 -7.28627 8.98272
head -0.24082 -2.59229 3.06685
rclavicle -9.54166e-015 2.94201e-014
rhumerus -12.3193 16.7363 -78.0107
rradius 107.9
rwrist 14.1487
rhand -42.4679 20.6514
rfingers 7.12502
rthumb -15.3459 -8.75916
lclavicle -9.54166e-015 2.94201e-014
lhumerus -13.4238 -28.2919 55.8549
lradius 105.287
lwrist -22.1579
lhand 7.02196 20.5374
lfingers 7.12502
lthumb 32.2966 47.6834
rfemur -79.2089 -12.9075 -7.75553
rtibia 101.507
rfoot -2.33662 9.9423
rtoes -16.7674
lfemur -65.871 22.0661 -2.90204
ltibia 94.8927
lfoot -11.6133 -12.6209
ltoes -24.4681
101
root 7.2747 10.785 10.7723 168.537 6.2136 172.525
lowerback 40.7782 0.901041 -9.63979
upperback 10.4226 1.17724 -4.5893
thorax -7.64709 2.46191 -0.669158
lowerneck -17.131 -7.40515 -3.17346
upperneck -11.1193 -7.17911 8.92838
head -0.21001 -2.53737 3.07509
rclavicle 1.19271e-014 -5.56597e-015
rhumerus -12.3981 16.6033 -78.4313
rradius 107.559
rwrist 15.0702
rhand -38.1684 22.7738
rfingers 7.12502
rthumb -11.2017 -6.90712
lclavicle 1.19271e-014 -5.56597e-015
lhumerus -14.297 -28.2724 56.4873
lradius 104.807
lwrist -21.7662
lhand 7.47763 20.4197
lfingers 7.12502
lthumb 32.7302 47.4764
rfemur -78.4945 -12.8842 -8.82813
rtibia 100.948
rfoot -3.44031 9.08144
rtoes -17.0638
lfemur -66.1286 22.0439 -3.53159
ltibia 95.1096
lfoot -11.3633 -11.5774
ltoes -22.8071
102
root 7.25895 10.7714 10.7855 168.518 6.26888 173.1
lowerback 40.7955 0.763742 -8.72499
upperback 10.8065 1.55865 -4.75468
thorax -7.26439 2.69838 -1.4453
lowerneck -18.888 -7.63085 -1.93794
upperneck -10.6817 -7.58903 8.3174
head 0.145487 -2.68755 2.57616
rclavicle -2.98177e-014 3.65764e-014
rhumerus -12.2904 15.6981 -78.9512
rradius 107.744
rwrist 15.6073
rhand -36.4166 21.7912
rfingers 7.12502
rthumb -9.51173 -7.97416
lclavicle -2.98177e-014 3.65764e-014
lhumerus -13.105 -28.9911 56.1436
lradius 103.921
lwrist -21.3164
lhand 7.95118 20.884
lfingers 7.12502
lthumb 33.1806 47.846
rfemur -77.439 -12.6398 -8.87564
rtibia 100.425
rfoot -4.43531 7.82688
rtoes -14.734
lfemur -66.3985 22.1641 -3.01239
ltibia 95.3776
lfoot -10.9874 -11.349
ltoes -19.8636
103
root 7.24993 10.7716 10.8011 168.363 6.69829 173.67
lowerback 40.9863 0.707904 -8.558
upperback 10.5043 1.35774 -4.33632
thorax -7.67848 2.53131 -1.02045
lowerneck -17.5971 -7.29526 -2.89621
upperneck -10.9644 -7.07581 8.40024
head -0.12913 -2.48341 2.83972
rclavicle 1.31198e-014 -6.36111e-015
rhumerus -12.8334 16.7824 -79.1026
rradius 106.763
rwrist 14.6464
rhand -33.1589 26.2043
rfingers 7.12502
rthumb -6.36763 -3.67996
lclavicle 1.31198e-014 -6.36111e-015
lhumerus -15.2573 -28.5513 57.7135
lradius 103.416
lwrist -21.5293
lhand 8.02479 21.5865
lfingers 7.12502
lthumb 33.2506 48.5335
rfemur -76.2409 -11.9878 -8.6317
rtibia 99.755
rfoot -5.79255 6.41183
rtoes -16.1241
lfemur -66.1894 22.6281 -2.23141
ltibia 95.572
lfoot -10.555 -11.3617
ltoes -16.6132
104
root 7.24522 10.7612 10.8092 168.318 7.05821 173.071
lowerback 40.9119 1.06815 -9.15361
upperback 10.6093 1.64706 -4.55409
thorax -7.51398 2.69677 -1.06281
lowerneck -18.7232 -7.35605 -2.38042
upperneck -10.5504 -7.20364 8.11198
head 0.155554 -2.51174 2.61421
rclavicle 3.97569e-016 -2.62396e-014
rhumerus -12.621 16.3227 -79.4867
rradius 105.947
rwrist 14.8619
rhand -31.8707 27.1
rfingers 7.12502
rthumb -5.12393 -2.81807
lclavicle 3.97569e-016 -2.62396e-014
lhumerus -15.2293 -28.9869 57.9034
lradius 102.877
lwrist -21.6347
lhand 7.54794 22.228
lfingers 7.12502
lthumb 32.7971 49.2708
rfemur -75.3113 -11.6572 -9.51633
rtibia 98.8943
rfoot -7.27862 5.67215
rtoes -25.0169
lfemur -66.1211 23.0373 -2.75644
ltibia 95.6709
lfoot -10.0358 -11.1904
ltoes -13.6383
105
root 7.24166 10.7361 10.8185 168.68 6.96436 172.658
lowerback 40.4371 1.1988 -9.91887
upperback 10.3259 1.36907 -4.2403
thorax -7.65826 2.48514 -0.215909
lowerneck -17.5811 -7.06473 -2.96422
upperneck -11.021 -6.77134 7.86198
head -0.189831 -2.34222 2.69044
rclavicle -2.42517e-014 -2.5842e-014
rhumerus -12.9542 17.3058 -79.5284
rradius 105.361
rwrist 15.35
rhand -30.5997 29.2543
rfingers 7.12502
rthumb -3.89659 -0.689776
lclavicle -2.42517e-014 -2.5842e-014
lhumerus -17.0013 -28.8025 59.3606
lradius 102.421
lwrist -22.0457
lhand 6.81275 22.2412
lfingers 7.12502
lthumb 32.0974 49.4276
rfemur -74.9348 -11.689 -10.3713
rtibia 98.1305
rfoot -7.99859 5.8878
rtoes -29.8765
lfemur -66.8253 23.0988 -3.41132
ltibia 95.6795
lfoot -9.30582 -11.452
ltoes -12.0849
106
root 7.2383 10.7593 10.8486 168.879 7.091 173.251
lowerback 40.6246 1.47858 -9.77272
upperback 10.0989 1.66304 -3.64139
thorax -8.01322 2.56533 0.217183
lowerneck -17.2432 -7.04735 -2.91528
upperneck -11.3327 -6.76172 7.25513
head -0.377459 -2.35557 2.48867
rclavicle -9.14409e-015 1.19271e-015
rhumerus -13.3147 17.3304 -79.3258
rradius 104.844
rwrist 15.9784
rhand -29.8156 32.9854
rfingers 7.12502
rthumb -3.13939 3.02873
lclavicle -9.14409e-015 1.19271e-015
lhumerus -17.6885 -29.1165 60.5901
lradius 101.897
lwrist -22.8508
lhand 6.01667 21.1207
lfingers 7.12502
lthumb 31.3392 48.4569
rfemur -74.8366 -11.2514 -9.86583
rtibia 97.6038
rfoot -7.76563 6.78985
rtoes -26.9947
lfemur -67.1656 23.0396 -2.71105
ltibia 95.5951
lfoot -8.45311 -12.0482
ltoes -12.2021
107
root 7.23681 10.7594 10.8561 168.729 7.49973 173.802
lowerback 40.0777 0.903456 -8.95393
upperback 10.6264 1.46915 -4.10288
thorax -7.25834 2.51478 -0.562195
lowerneck -16.6935 -6.87156 -2.72013
upperneck -12.2391 -6.41299 7.71521
head -0.769513 -2.16526 2.65444
rclavicle 3.06128e-014 6.12257e-014
rhumerus -12.5163 17.564 -80.2904
rradius 104.028
rwrist 16.5315
rhand -27.6675 34.2082
rfingers 7.12502
rthumb -1.06481 4.23113
lclavicle 3.06128e-014 6.12257e-014
lhumerus -17.709 -28.564 59.9123
lradius 101.538
lwrist -23.815
lhand 3.07627 19.2026
lfingers 7.12502
lthumb 28.5334 47.0456
rfemur -75.1258 -10.9335 -9.06747
rtibia 97.5914
rfoot -7.06654 7.50684
rtoes -22.7883
lfemur -66.6266 23.3864 -2.09328
ltibia 95.3168
lfoot -9.04836 -11.5042
ltoes -20.1409
108
root 7.22725 10.7482 10.8502 168.405 7.56799 173.489
lowerback 39.8317 0.656646 -9.05722
upperback 10.8794 1.23207 -4.45489
thorax -6.87525 2.43975 -0.771462
lowerneck -16.1966 -6.741 -2.68141
upperneck -12.7251 -6.1898 7.9431
head -1.01289 -2.05942 2.75579
rclavicle 1.51076e-014 -2.94201e-014
rhumerus -12.3647 17.8718 -80.9172
rradius 103.63
rwrist 16.7752
rhand -27.5054 34.4255
rfingers 7.12502
rthumb -0.908197 4.44773
lclavicle 1.51076e-014 -2.94201e-014
lhumerus -18.3602 -28.324 59.8379
lradius 101.473
lwrist -25.2797
lhand 0.093378 18.052
lfingers 7.12502
lthumb 25.6798 46.3399
rfemur -75.1032 -11.2001 -9.21325
rtibia 97.5913
rfoot -6.28519 7.4011
rtoes -20.4233
lfemur -66.3332 23.2696 -2.22145
ltibia 95.3493
lfoot -8.60013 -11.3217
ltoes -18.9625
109
root 7.21862 10.7429 10.8516 168.214 7.50802 173.349
lowerback 39.9059 0.283638 -8.72383
upperback 10.9264 0.907516 -4.99573
thorax -6.84345 2.33537 -1.39461
lowerneck -16.2906 -6.65382 -2.14049
upperneck -12.7607 -6.121 8.03226
head -1.03057 -2.03617 2.69187
rclavicle -1.74931e-014 -3.02153e-014
rhumerus -12.5308 17.8308 -81.9481
rradius 103.437
rwrist 17.0756
rhand -26.626 34.5252
rfingers 7.12502
rthumb -0.058909 4.54551
lclavicle -1.74931e-014 -3.02153e-014
lhumerus -18.9128 -28.4243 59.3902
lradius 101.748
lwrist -26.9406
lhand -0.217875 18.2984
lfingers 7.12502
lthumb 25.3817 46.629
rfemur -75.1137 -11.4891 -9.18287
rtibia 97.6816
rfoot -5.64004 6.87549
rtoes -18.6732
lfemur -66.2601 23.0522 -2.26108
ltibia 95.4198
lfoot -8.10062 -11.337
ltoes -16.192
110
root 7.21266 10.742 10.8622 168.214 7.42026 174.045
lowerback 41.2892 0.963484 -9.04699
upperback 9.96009 1.18347 -3.65986
thorax -8.37863 2.34475 -0.00744244
lowerneck -16.0349 -6.59512 -2.76864
upperneck -12.1079 -6.19017 7.07812
head -0.863951 -2.12002 2.47269
rclavicle -4.37326e-014 -6.04305e-014
rhumerus -13.9953 18.4869 -81.054
rradius 103.292
rwrist 17.0324
rhand -25.3945 33.8903
rfingers 7.12502
rthumb 1.13057 3.91357
lclavicle -4.37326e-014 -6.04305e-014
lhumerus -21.1269 -28.5494 62.1134
lradius 102.072
lwrist -28.4012
lhand -0.455099 18.93
lfingers 7.12502
lthumb 25.1544 47.2927
rfemur -75.2779 -11.6683 -8.32181
rtibia 97.8993
rfoot -5.2303 6.5812
rtoes -16.3286
lfemur -66.3592 22.9578 -1.59407
ltibia 95.4347
lfoot -7.6537 -11.4509
ltoes -13.6753
111
root 7.20425 10.7385 10.8674 168.351 7.14716 174.598
lowerback 40.8589 0.424054 -8.23457
upperback 10.2578 0.947914 -3.79344
thorax -7.93386 2.24287 -0.435305
lowerneck -16.1314 -6.55551 -2.49716
upperneck -12.2529 -6.13226 7.13094
head -0.907709 -2.08625 2.44582
rclavicle -3.97569e-015 3.57812e-014
rhumerus -13.6108 18.5823 -81.4121
rradius 102.813
rwrist 17.066
rhand -25.5264 33.3417
rfingers 7.12502
rthumb 1.00315 3.3643
lclavicle -3.97569e-015 3.57812e-014
lhumerus -20.8106 -28.2592 61.7964
lradius 102.379
lwrist -28.138
lhand -0.718125 19.4057
lfingers 7.12502
lthumb 24.9024 47.8035
rfemur -75.3709 -12.0686 -7.75501
rtibia 98.0807
rfoot -5.20903 6.57105
rtoes -16.0309
lfemur -66.7425 22.6613 -1.21522
ltibia 95.4733
lfoot -7.39085 -11.3926
ltoes -12.7936
112
root 7.19869 10.7419 10.8697 168.385 6.97579 174.808
lowerback 40.4648 -0.107584 -7.55316
upperback 10.5391 0.653957 -4.24265
thorax -7.51258 2.1404 -1.11941
lowerneck -16.1442 -6.53505 -2.23379
upperneck -12.3679 -6.09275 7.49643
head -0.941331 -2.06361 2.52557
rclavicle -1.59028e-015 -2.70347e-014
rhumerus -13.3237 18.6473 -82.1031
rradius 102.566
rwrist 16.8577
rhand -26.1327 32.9388
rfingers 7.12502
rthumb 0.417583 2.95942
lclavicle -1.59028e-015 -2.70347e-014
lhumerus -20.3631 -28.0423 61.0056
lradius 102.904
lwrist -26.6242
lhand 0.829397 19.6026
lfingers 7.12502
lthumb 26.3845 47.7868
rfemur -75.1718 -12.3101 -7.54298
rtibia 98.1327
rfoot -5.4312 6.43419
rtoes -17.1824
lfemur -66.8793 22.4209 -1.08911
ltibia 95.5081
lfoot -7.37356 -11.3152
ltoes -12.8282
